<svg xmlns="http://www.w3.org/2000/svg" xmlns:xlink="http://www.w3.org/1999/xlink" viewBox="0 0 62.22 60"><defs><style>.a{fill:#ffde5b;}.b{fill:url(#a);}.c{fill:url(#b);}.d{fill:url(#c);}.e{fill:url(#d);}.f{fill:url(#e);}.g{fill:#02823f;}.h{fill:#e52322;}</style><linearGradient id="a" x1="1682.6" y1="-261.58" x2="1682.17" y2="-227.95" gradientTransform="translate(-1290.66 1101.33) rotate(-30.66)" gradientUnits="userSpaceOnUse"><stop offset="0" stop-color="#dbdbdb"/><stop offset="0.29" stop-color="#fff"/><stop offset="0.69" stop-color="#fafafa"/><stop offset="1" stop-color="#f2f2f2"/></linearGradient><linearGradient id="b" x1="1681.71" y1="-261.59" x2="1681.29" y2="-227.96" gradientTransform="translate(-1290.66 1101.33) rotate(-30.66)" gradientUnits="userSpaceOnUse"><stop offset="0" stop-color="#dbdbdb"/><stop offset="0.29" stop-color="#fff"/><stop offset="0.44" stop-color="#fafafa"/><stop offset="0.6" stop-color="#ededed"/><stop offset="0.77" stop-color="#d7d7d7"/><stop offset="0.95" stop-color="#b8b8b8"/><stop offset="1" stop-color="#aeaeae"/></linearGradient><linearGradient id="c" x1="1678.23" y1="-259.04" x2="1675.06" y2="-224.89" gradientTransform="translate(-1290.66 1101.33) rotate(-30.66)" gradientUnits="userSpaceOnUse"><stop offset="0" stop-color="#006100"/><stop offset="0.29" stop-color="#008f00"/><stop offset="0.45" stop-color="#008b00"/><stop offset="0.62" stop-color="#007f00"/><stop offset="0.78" stop-color="#006b00"/><stop offset="0.95" stop-color="#004f00"/><stop offset="1" stop-color="#004500"/></linearGradient><linearGradient id="d" x1="1687.4" y1="-264.23" x2="1687.08" y2="-229.13" gradientTransform="translate(-1290.66 1101.33) rotate(-30.66)" gradientUnits="userSpaceOnUse"><stop offset="0" stop-color="#dc0000"/><stop offset="0.04" stop-color="#e60000"/><stop offset="0.12" stop-color="#f80000"/><stop offset="0.19" stop-color="red"/><stop offset="0.33" stop-color="#fb0000"/><stop offset="0.48" stop-color="#e00"/><stop offset="0.63" stop-color="#d90101"/><stop offset="0.79" stop-color="#bb0201"/><stop offset="0.94" stop-color="#960302"/><stop offset="1" stop-color="#860302"/></linearGradient><linearGradient id="e" x1="1687.84" y1="-264.22" x2="1687.52" y2="-229.12" gradientTransform="translate(-1290.66 1101.33) rotate(-30.66)" gradientUnits="userSpaceOnUse"><stop offset="0" stop-color="#dc0000"/><stop offset="0.04" stop-color="#e60000"/><stop offset="0.12" stop-color="#f80000"/><stop offset="0.19" stop-color="red"/><stop offset="0.42" stop-color="#fb0101"/><stop offset="0.66" stop-color="#ee0406"/><stop offset="0.91" stop-color="#d9080d"/><stop offset="1" stop-color="#d00a10"/></linearGradient></defs><circle class="a" cx="32.22" cy="30" r="30"/><path class="b" d="M32.75,41.13c.14.21.26.43.38.64l.17.3h6.88c0-.43-.09-.88-.16-1.33a27.22,27.22,0,0,1-5,.39Z"/><path class="c" d="M30.15,37.38c0-2.8,0-7.84,0-12a23.73,23.73,0,0,1-2.4-4V34.23C28.55,35.29,29.37,36.35,30.15,37.38Z"/><path class="d" d="M32.75,41.13h-2.4a5,5,0,0,1-.21-1.6V37.38c-.78-1-1.6-2.09-2.39-3.15v6.08a2.12,2.12,0,0,1-.92,1.76H33.3l-.17-.3C33,41.56,32.89,41.34,32.75,41.13Z"/><path class="e" d="M30.17,18.68a2.12,2.12,0,0,1,.91-1.75H26.85a2.12,2.12,0,0,1,.91,1.75v2.67a23.73,23.73,0,0,0,2.4,4C30.16,21.68,30.17,18.7,30.17,18.68Z"/><path class="f" d="M43.5,42.07l.72-3.37v0A5,5,0,0,1,42.51,40a10.19,10.19,0,0,1-2.49.77c.07.45.12.9.16,1.33Z"/><path class="g" d="M25.85,56.43l-.4-.27c-.58-.35-1.19-.65-1.74-1.06-.78-.57-1.5-1.24-2.34-1.74-.58-.33-1.14-.7-1.7-1.07a3,3,0,0,1-.69-.48c-.13-.16-.19-.31-.06-.49s.08-.14,0-.23A4.16,4.16,0,0,1,18.46,50c-.12-.32-.25-.63-.39-1,0-.09-.09-.22-.21-.19s-.08.17-.07.25a2.06,2.06,0,0,0,.17.76c.14.25-.24.5.07.69l-.05.07c-.13.15-.23.09-.34,0l-1-1a.31.31,0,0,1-.1-.26l.14,0c.09,0,.19,0,.21-.12s-.08-.13-.15-.19a1.73,1.73,0,0,0-.28-.19,5.54,5.54,0,0,1-2.1-1.86.54.54,0,0,1-.14-.42.57.57,0,0,0-.2-.56,1.27,1.27,0,0,1-.36-1,7.33,7.33,0,0,0-.16-1.4.71.71,0,0,1,.27-.78c.39-.29.49-.77.77-1.13,0,0,0-.09,0-.14a4.21,4.21,0,0,0,.06-.94,2.39,2.39,0,0,0-1.56-2.14c-.18-.06-.46-.19-.54,0s.19.32.38.39a2.48,2.48,0,0,1,1.35,1.55s0,.13,0,.16a1,1,0,0,0-.14.76.23.23,0,0,1-.13.24c-.09,0-.16,0-.22-.09a2.17,2.17,0,0,1-.51-.58c0-.08-.08-.19-.21-.15s-.06.17,0,.27l.18.75a.12.12,0,0,1,0,.15c-.06,0-.08,0-.11-.06s0-.26-.21-.19-.12.2-.12.33A7.41,7.41,0,0,0,13,43.23c0,.13.12.32-.08.37s-.16-.16-.21-.26a15.52,15.52,0,0,1-1.42-3.91,2.65,2.65,0,0,0-.29-.75.2.2,0,0,0-.21-.12.13.13,0,0,0-.13.13,2.17,2.17,0,0,0,.09,1.05c.25.47.27,1,.47,1.48a.21.21,0,0,1-.12.31,21,21,0,0,1-.76-2.05c-.25-.59-.41-1.22-.6-1.83a.21.21,0,0,1,.09-.25h.06l.06.24a2.1,2.1,0,0,0,.3-2c-.16.18,0,.46-.24.66h0a3.71,3.71,0,0,1-.37-1.14,2.52,2.52,0,0,0-.08-.54,9.12,9.12,0,0,1-.34-1.24,7.59,7.59,0,0,0-.58-2.17,18,18,0,0,0-2.24-3.62c-.08-.09-.17-.23-.28-.19s-.07.23-.06.36a0,0,0,0,0,0,0c.31,1.13.6,2.26.83,3.41.15.76.5,1.46.72,2.2,0,.11.1.23,0,.32s-.21,0-.31-.07c-.39-.24-.78-.49-1.18-.72a6.91,6.91,0,0,1-1.9-1.63l-.7-.8A.36.36,0,0,0,3,30.33a.68.68,0,0,1-.54-.09,7.66,7.66,0,0,1-1.43-.79,3.66,3.66,0,0,0-.67-.37.35.35,0,0,0-.4,0v.06a2.45,2.45,0,0,0,.38.24,5.21,5.21,0,0,1,1.41,1,22.8,22.8,0,0,1,1.38,1.89c.07.08,0,.13,0,.2-.23.23-.23.25.07.41.71.4,1.43.81,2.16,1.19A5,5,0,0,0,7,34.79c.08,0,.19.06.23,0s-.08-.13-.14-.17L6,34a.44.44,0,0,1-.22-.41c0-.11.17-.14.27-.17a.35.35,0,0,1,.24.08A10.47,10.47,0,0,1,7.81,34.6a1.32,1.32,0,0,1,.46.65,13.12,13.12,0,0,0,.62,1.57A18.89,18.89,0,0,1,10,39.72a5.21,5.21,0,0,0,.4,1.27c.22.42.38.86.56,1.29a1.33,1.33,0,0,0,.2.37c.3.36.61.72.89,1.09.11.13.39.31.22.44s-.33-.16-.44-.3a6,6,0,0,0-.9-1,2.44,2.44,0,0,1-.74-1.14,7.55,7.55,0,0,0-.74-1.76.75.75,0,0,1-.12-.41.67.67,0,0,0-.39-.7l-.5-.33A19.38,19.38,0,0,1,6.13,37a12,12,0,0,0-3.94-2A2.67,2.67,0,0,0,1,35a.27.27,0,0,0-.26.22c0,.14.12.12.21.14a1,1,0,0,1,.36.22c.1.1.18.15.23,0s.23-.24.4-.13a2.35,2.35,0,0,0,.63.27,12.29,12.29,0,0,1,2.18,1s.15,0,.11.13a.14.14,0,0,1-.17.08c-.29-.09-.6,0-.87-.25a.83.83,0,0,0-.57-.18c0,.17.22.26.24.43a.92.92,0,0,1-.64-.12A2,2,0,0,0,2,36.42c-.07,0-.18,0-.2-.07s-.23-.15-.37-.17-.13,0-.15.07.06.09.11.11a9.36,9.36,0,0,0,2.89,1.13c.41.09.67-.26,1-.31,0,0,0,0,0,0-.07.23,0,.28.24.29a1.2,1.2,0,0,1,.56.11l1.52.92c.09,0,.17.12.13.23s-.14,0-.2,0c-.6,0-.84.25-.69.82a4.87,4.87,0,0,0,2.45,3.23.54.54,0,0,0,.27.09c.11,0,.23,0,.27-.13s-.07-.18-.15-.23c-.25-.15-.5-.29-.74-.45s-.3-.17-.26-.31c.1-.33-.13-.42-.32-.54a2.65,2.65,0,0,1-1.09-1.84.22.22,0,0,1,.1-.28c.11,0,.25-.05.31.06s.12.07.22,0,.32-.22.44,0c.47,1,1.07,1.9,1.45,2.92a1.87,1.87,0,0,0,.56.86,13.2,13.2,0,0,1,1.47,1.52,4,4,0,0,0,1.19,1,.86.86,0,0,1,.45.5.65.65,0,0,1-.14,0,.36.36,0,0,1-.14,0,12.91,12.91,0,0,1-3.81-1.39,2.12,2.12,0,0,0-.57-.27A4.39,4.39,0,0,1,7,43.21c-.09-.1-.22-.23-.34-.12s0,.23.12.32c.6.76,1.21,1.52,1.81,2.29.05.06.11.16.21.1s0-.18,0-.26l-.45-.69c-.07-.1-.16-.21-.06-.31s.17,0,.25.07a21.74,21.74,0,0,0,4,1.64c.23.06.44.17.67.25a.43.43,0,0,1,.26.21A.51.51,0,0,0,14,47c.24,0,.59.4.5.62s0,.31.14.43c.84.77,1.68,1.54,2.45,2.37a10.92,10.92,0,0,0,2,1.76c.16.1.37.16.4.4s.34.12.5.26A16.54,16.54,0,0,0,22,54.3a.94.94,0,0,1,.47.66.53.53,0,0,0,.33.43l.86.46c.65.33,1.32.65,2,.92.11,0,.23.1.31,0S26,56.51,25.85,56.43ZM9.37,36.16c0,.09-.09.06-.14,0a.55.55,0,0,1-.26-.3c-.33-1.07-.88-2-1.25-3.1a21.57,21.57,0,0,1-.92-3.35l0-.19c0-.07,0-.14.07-.18s.11,0,.14.09a13,13,0,0,1,1.7,3.7c.14.64.37,1.25.53,1.89.06.29,0,.6.22.87C9.52,35.71,9.4,36,9.37,36.16Zm-6.52-5c-.05-.07-.15-.14-.07-.22S3,31,3,31a26.46,26.46,0,0,0,2.44,2.06,2,2,0,0,1-1.35-.46A6.87,6.87,0,0,1,2.85,31.2Z"/><path class="g" d="M19.78,54.09a1.28,1.28,0,0,1-1,.09.19.19,0,0,1-.14-.09c0-.06.05-.09.09-.13a1,1,0,0,1,.91-.36v-.08l-.45-.16c-.06,0-.13-.06-.14-.13s.08-.09.13-.12.28-.14.22-.25-.23,0-.36,0a.47.47,0,0,0-.12.07,1.05,1.05,0,0,1-1.09.24,10,10,0,0,1-1.93-.85,22.52,22.52,0,0,0-2.16-1.17.12.12,0,0,1-.1-.17c0-.1.09-.11.18-.12a2,2,0,0,1,.7.1L17.29,52a2.29,2.29,0,0,1,.74.35.16.16,0,0,0,.25,0,.07.07,0,0,0,0-.11c-.29-.06-.41-.35-.67-.45-.88-.36-1.77-.7-2.61-1.12a3.93,3.93,0,0,0-2.12-.11.57.57,0,0,0-.28.14c-.07,0-.18.1-.16.22s.12.11.2.14a2.65,2.65,0,0,1,.83.44,20.84,20.84,0,0,0,3.74,2.43c.08.05.18.08.21.18a.65.65,0,0,0,.5.39c.24.06.47.15.71.2a1.41,1.41,0,0,0,1.33-.34c.08-.07.19-.15.13-.26S19.85,54,19.78,54.09Z"/><path class="g" d="M9.83,31.09a.44.44,0,0,1-.22-.2,19.4,19.4,0,0,1-1.68-2.8,1.06,1.06,0,0,1-.13-.52c0-.28,0-.56-.23-.77a2.1,2.1,0,0,0,.19,2,42.48,42.48,0,0,1,2.43,3.91,1.42,1.42,0,0,1,.17.9c-.06.37-.1.74-.13,1.11,0,.16,0,.43.13.45s.23-.26.24-.42a20.06,20.06,0,0,1,.66-3.19,4.83,4.83,0,0,0,.17-1.93A11.46,11.46,0,0,1,11.3,28h0c.13,0,.17.16.23.27a6.35,6.35,0,0,1,.68,3.66c0,.23-.12.5.16.68,0,0,0,.11,0,.17-.05.32-.1.64-.17,1a.45.45,0,0,1-.44.41,3,3,0,0,0-.31,0c-.28.05-.35.15-.26.42a.8.8,0,0,1,0,.55,5.08,5.08,0,0,0-.31,1.22c0,.17-.06.4.14.43s.2-.23.23-.38c.08-.42.16-.84.23-1.26a.73.73,0,0,1,.48-.62.8.8,0,0,0,.58-.75c0-.82.15-1.63.2-2.45a6.63,6.63,0,0,0-1.15-3.83c-.13-.23-.24-.21-.39,0h0c-.19-.08-.15-.26-.17-.42a.22.22,0,0,0-.23-.21c-.16,0-.18.13-.16.25a3.12,3.12,0,0,0,.09.44A7.33,7.33,0,0,1,11,30.16a6.33,6.33,0,0,1-.35,1.73c-.05.13-.07.33-.25.31s-.21-.2-.29-.33,0-.17,0-.25c.15-.36,0-.72,0-1.08a.46.46,0,0,0-.28-.36A2.53,2.53,0,0,1,9.83,31.09Z"/><path class="g" d="M21.76,51.35a5.42,5.42,0,0,0,.95,2.42c.07.1.12.27.27.19s.05-.23,0-.33c-.26-.47-.42-1-.64-1.47a.8.8,0,0,1,.09-1,.31.31,0,0,0,.06-.16.29.29,0,0,1,.33-.28c.19,0,.26-.08.26-.26s0-.61,0-.91a1.55,1.55,0,0,0-.35-.87.2.2,0,0,0-.27-.08c-.12.07-.07.16,0,.25l.12.29c0,.1.11.19,0,.3s-.19.05-.29,0c-.41-.08-.42-.08-.54.32l-.07.26a2.1,2.1,0,0,1-.76-2c.05-.33,0-.69.27-1,.1-.09.16-.12.28,0a3.85,3.85,0,0,1,1.16,1c.06.08.14.14.23.08s0-.16,0-.23a2.32,2.32,0,0,0-1.25-1.08c-.06,0-.14-.08-.19,0s-.34.15-.51.21a.35.35,0,0,0-.28.29c0,.14-.05.28-.08.42a2.74,2.74,0,0,0,.64,2.51A2.46,2.46,0,0,1,21.76,51.35Zm.52-1.52c.26,0,.47,0,.49.31s-.07.29-.23.25-.4-.06-.42-.29S22.11,49.8,22.28,49.83Z"/><path class="g" d="M7.88,27a.17.17,0,0,0,.17-.09c.23-.65-.24-1.21-.24-1.9.08.11.13.16.16.21a9.44,9.44,0,0,1,.7,1.9c.06.3.13.6.21.89a.18.18,0,0,0,.17.16c.12,0,.13-.09.15-.17a1.49,1.49,0,0,0,0-.63A11.63,11.63,0,0,0,8.31,25a2.43,2.43,0,0,0-.58-.73c-.14-.12-.29-.06-.43,0a.24.24,0,0,0-.11.32C7.53,25.35,7.58,26.22,7.88,27Z"/><path class="g" d="M17.26,43.82a.5.5,0,0,0,.13.12c.06.05.13.12.22.05s.05-.15,0-.23l-.38-.9c0-.1-.07-.2,0-.29s.15,0,.23,0a.46.46,0,0,0,.53-.1,2.7,2.7,0,0,0,.57-1.54,2,2,0,0,0-.71,1c0,.17-.12.13-.2,0s-.22-.26-.39-.06c0,0-.07.13-.14.1s-.05-.14-.05-.2a4.84,4.84,0,0,0-.12-1.2.56.56,0,0,0-.43-.43,6.66,6.66,0,0,1,.21,2.06A4.88,4.88,0,0,0,17.26,43.82Z"/><path class="g" d="M13.23,47.76c.19,0,.33-.15.32-.35s-.21-.15-.34-.15a3,3,0,0,1-1.77-.57,2.38,2.38,0,0,0-.88-.38c-.13,0-.26,0-.34.07s-.25.13-.4,0-.33-.19-.5-.27a.17.17,0,0,0-.23.07c-.06.1.05.12.1.17a1.14,1.14,0,0,1,.44.4.44.44,0,0,0,.59.25,1.65,1.65,0,0,1,1.49.27,3,3,0,0,0,1.3.44A1.52,1.52,0,0,0,13.23,47.76Z"/><path class="g" d="M18,45a.85.85,0,0,0,.12-.28c0-.23.1-.47-.05-.68a.91.91,0,0,0-.33.63A3.45,3.45,0,0,1,17.23,46c0-.34,0-.67.07-1s0-.38,0-.57a.15.15,0,0,0-.1-.16c-.1,0-.1.07-.12.13a3.92,3.92,0,0,0-.13.49,6.48,6.48,0,0,0,.3,3.15.25.25,0,0,0,.2.21,2,2,0,0,0,0-.7c0-.06,0-.11,0-.17-.17-.83.39-1.5.51-2.27C18,45.09,18,45.06,18,45Z"/><path class="g" d="M27,56c0-.1,0-.24-.05-.37a.43.43,0,0,0-.41-.37.38.38,0,0,0-.44.27c-.05.12-.13.23-.18.36s-.13.15,0,.25.18,0,.27,0a.53.53,0,0,1,.49,0c.09.06.16.21.29.12S27,56.09,27,56Z"/><path class="g" d="M17.82,40.38a.62.62,0,0,0,.2.16c.08.05.17.12.25,0s0-.16,0-.23a3,3,0,0,0-.87-.82c-.31-.18-.48-.15-.78.16A1.93,1.93,0,0,1,17.82,40.38Z"/><path class="g" d="M9.8,30.07a3.82,3.82,0,0,0,0-.43.53.53,0,0,0-.28-.55c-.1-.05-.24-.07-.23.09A1,1,0,0,0,9.8,30.07Z"/><path class="g" d="M12.85,39.9c.18,0,.19-.14.18-.35s0-.35-.17-.35-.14.26-.15.41S12.67,39.89,12.85,39.9Z"/><path class="g" d="M10.41,38.09s.09,0,.12,0,.17-.3,0-.47A.46.46,0,0,0,10.41,38.09Z"/><path class="g" d="M17.52,48.69s.08,0,.09,0a.28.28,0,0,0-.13-.35C17.48,48.47,17.39,48.59,17.52,48.69Z"/><path class="g" d="M41.2,54.78a.16.16,0,0,1-.05-.31A26.27,26.27,0,1,0,11.66,13.6a.16.16,0,0,1-.22,0,.17.17,0,0,1,0-.23A26.59,26.59,0,1,1,41.26,54.77Z"/><path class="h" d="M18.89,10.35l-.06,0a3.49,3.49,0,0,0-.26-.3.53.53,0,0,0-.36,0,1.42,1.42,0,0,0-.43.24.93.93,0,0,0-.28.29,1,1,0,0,0-.18.61,1,1,0,0,0,.21.61l.14.14a1.29,1.29,0,0,0,.71.35,1.25,1.25,0,0,0,.73-.13L19.4,12a1.62,1.62,0,0,0,.51-.63l.06.1a1.49,1.49,0,0,1-.24.38,1.91,1.91,0,0,1-.38.37,1.53,1.53,0,0,1-1.19.36,1.18,1.18,0,0,1-.71-.44,1.37,1.37,0,0,1-.28-.75,1.3,1.3,0,0,1,.23-.82,2,2,0,0,1,.44-.45,3.36,3.36,0,0,1,.57-.35l-.08-.16-.07-.14,0-.06A7.22,7.22,0,0,0,18.89,10.35Z"/><path class="h" d="M18.9,9.46l0,0,.23-.13.22-.12.47-.29,0,0a3.24,3.24,0,0,0-.28.22c.11.21.27.51.5.89l.42-.23.28-.18.39-.23.32-.19-.22-.38a5.08,5.08,0,0,0-.31-.49l-.33.14,0,0,.23-.13L21,8.18,21.26,8l.18-.12V8l-.13.1-.16.13.48.87c.06.09.13.22.24.38l.24.4.21.33.2-.09.13-.05,0,0-.41.23-.5.32,0-.07.28-.21c-.06-.13-.25-.48-.57-1l-.11.06-.32.2-.45.29-.52.33.28.46c.13.22.24.38.31.49L21,11l0,.05-.44.23-.48.29v-.06l.29-.22-.56-1c-.19-.33-.39-.65-.6-1A1.6,1.6,0,0,0,18.9,9.46Z"/><path class="h" d="M22.24,7.69l-.17,0-.18.06,0,0,.69-.28c.36-.16.61-.29.76-.37l0-.16,0,0c.07.2.12.35.15.46a2.16,2.16,0,0,1,.08.24h-.06l-.1-.24s-.14,0-.35,0a3.29,3.29,0,0,0-.49.17c.11.29.24.61.39,1a3.91,3.91,0,0,0,.7-.36l0-.16,0,0,.09.31.09.32h-.06l0-.11,0-.11a1.51,1.51,0,0,0-.66.19l-.06,0a1.12,1.12,0,0,1,.05.13l.22.45c.09.21.17.37.23.51.47-.21.73-.37.78-.5l0-.12c0-.07,0-.13,0-.18l.06-.06c0,.08.05.22.1.41l.11.39h-.05l-.09-.18a4.32,4.32,0,0,0-.81.3l-.62.29,0-.06.33-.19-.48-1.13C22.53,8.29,22.38,8,22.24,7.69Z"/><path class="h" d="M24.29,7.49c0-.23-.1-.57-.21-1h.06c0,.1.07.2.11.31l.95-.26L26,6.21,25.73,7l-.31.93c-.1.3-.17.54-.23.72s-.1.31-.12.38l.09,0c.22-.07.46-.16.74-.28a2.49,2.49,0,0,0,.6-.31,4.08,4.08,0,0,0,0-.55l.06,0s0,.22.08.6.09.57.1.61h-.07a1.24,1.24,0,0,0,0-.16c0-.06,0-.11,0-.13v0a6.66,6.66,0,0,0-.95.25l-.9.31.17-.48c.12-.33.25-.74.41-1.23s.27-.85.34-1.1c-.16.05-.42.14-.75.28a1.8,1.8,0,0,0-.55.28,1.79,1.79,0,0,0,0,.21c0,.09,0,.18,0,.26Z"/><path class="h" d="M30.12,7.69a3,3,0,0,0,.06-.42l.07,0c0,.13,0,.32,0,.57s0,.45,0,.59h-.07a2.43,2.43,0,0,0,0-.42l-.24,0-.32,0-.5.06-.22,0-.2,0V8.12L29,8c-.05-.47-.1-.87-.14-1.19l-.09-.6c0-.13-.05-.3-.09-.49H28.3v0l.25,0,.21,0L29,5.6l.18,0,.18,0V5.6l-.2.05-.2,0s0,.13,0,.29,0,.38.07.66c.08.51.13.86.16,1s.05.28.05.28A1.4,1.4,0,0,0,30.12,7.69Z"/><path class="h" d="M30.65,5.48a4.7,4.7,0,0,1-.26.86l-.2,0a5.39,5.39,0,0,0,.14-.85Z"/><path class="h" d="M30.84,5.45v0h.5l.34,0,.24,0,0,.06a.57.57,0,0,0-.18,0l-.19,0q0,.11,0,1.11c0,.69.06,1.08.07,1.19l.37,0,0,0h-.45l-.63,0V7.84l.37-.06c0-.25,0-.65,0-1.18s0-.8-.06-1.12Z"/><path class="h" d="M32.09,5.94c0-.34.07-.6.08-.77v-.1l.07,0a.82.82,0,0,0,0,.24c.22,0,.59,0,1.11.07l1.24,0a1.1,1.1,0,0,0,0-.11.62.62,0,0,0,0-.11h.07c0,.09-.05.25-.08.46s-.06.35-.07.42l-.06,0s0-.09,0-.12V5.66a.75.75,0,0,0-.28-.09l-.39-.05-.33,0c0,.08,0,.2,0,.38s0,.41-.05.69c0,.64,0,1.05,0,1.21l.45.07v0H32.68l0-.06.45,0c0-.32.05-.74.07-1.26s0-.77,0-1a2.48,2.48,0,0,0-1,.09s0,.14-.09.35Z"/><path class="h" d="M34.22,7.89V7.83h.31s.12-.19.31-.52l.56-1,.35-.65-.28-.09V5.53l.48.09.46,0,0,.06a1.29,1.29,0,0,0-.28,0c0,.34.14.8.26,1.38a8.92,8.92,0,0,0,.26,1l.14,0,.16.05v.06l-.53-.1-.5-.06,0-.05a2.28,2.28,0,0,0,.36,0,3,3,0,0,0-.09-.53c-.06-.33-.1-.53-.12-.59l-.85-.09a2.87,2.87,0,0,0-.14.26l-.2.45c-.06.14-.09.23-.1.26h0l.26.09V8l-.4-.08ZM35.3,6.76l.38.06.4.06s0-.19-.11-.56l-.11-.57a2.77,2.77,0,0,0-.27.47A5.93,5.93,0,0,0,35.3,6.76Z"/><path class="h" d="M38.36,8.38A3.5,3.5,0,0,0,38.58,8h.07a3.69,3.69,0,0,0-.25.52,5,5,0,0,0-.2.55l-.06,0c0-.1.07-.23.11-.4L38,8.58,37.7,8.5l-.49-.13-.21,0-.2,0,0,0,.37,0c.12-.45.23-.84.3-1.15l.14-.59c0-.14.07-.3.1-.49l-.35-.14V5.85l.25.07.2.06.28.06.18,0,.18,0,0,0-.2,0-.2,0s0,.12-.08.28-.1.37-.17.65c-.12.5-.2.84-.24,1l-.06.28A1.41,1.41,0,0,0,38.36,8.38Z"/><path class="h" d="M39.28,6.39v0l.18.06.29.1.33.1.23.07,0,0-.18,0-.19,0c0,.07-.14.42-.35,1.05l-.35,1.14.34.16v.06L39.36,9l-.23-.07-.6-.18,0-.05.37.07.37-1.12c.13-.41.24-.77.32-1.07A3,3,0,0,0,39.28,6.39Z"/><path class="h" d="M41,7l-.15-.09-.17-.09V6.77l.68.3a8.14,8.14,0,0,0,.8.28l.08-.14h.06c-.1.18-.17.32-.22.43l-.12.22,0,0,.1-.23s-.07-.13-.26-.24a3.84,3.84,0,0,0-.46-.23q-.21.42-.42,1a3.59,3.59,0,0,0,.75.24l.08-.13h.06l-.16.28-.17.29,0,0a1,1,0,0,1,0-.1l0-.12a1.75,1.75,0,0,0-.6-.34l-.05,0-.06.13c0,.1-.1.26-.17.47s-.14.38-.2.51q.72.3.9.21l.07-.1a1,1,0,0,0,.1-.16h.09a2.92,2.92,0,0,0-.23.36c-.1.17-.16.29-.2.36l0,0,.06-.19a3.86,3.86,0,0,0-.78-.37l-.65-.24,0,0,.36.09c.16-.37.32-.75.47-1.13S40.87,7.31,41,7Z"/><path class="h" d="M41.6,9.83l0-.05.11.05.18.06c.09-.11.48-.76,1.17-2l-.16-.11-.16-.11V7.64a7,7,0,0,0,.64.32c0,.23.06.46.1.69s.08.51.15.84.1.61.14.82.06.34.06.37h0c.55-1,.86-1.61.95-1.82a2.8,2.8,0,0,0-.33-.24l0,0,.21.12.23.14.23.11.16.09,0,0L45,9a4.6,4.6,0,0,0-.31.48c-.15.24-.29.49-.44.75l-.58,1c0-.17-.08-.43-.14-.79s-.11-.61-.13-.76-.08-.4-.14-.72l-.17-.89c-.17.31-.35.65-.54,1s-.35.67-.45.89a2.84,2.84,0,0,0,.34.25l0,.05-.21-.13L42,10.05l-.21-.11Z"/><path class="h" d="M44.28,11.3l0,0,.11.06.17.08c.11-.09.59-.69,1.43-1.78a1.63,1.63,0,0,0-.14-.14l-.15-.13,0,0c.31.21.5.35.59.4,0,.23,0,.46,0,.69s0,.52,0,.86,0,.61,0,.83,0,.34,0,.37h0c.68-.92,1.07-1.48,1.18-1.68a1.89,1.89,0,0,0-.29-.27l0-.06.2.15.21.17.21.14a1,1,0,0,0,.15.11l0,0-.26-.14a4.6,4.6,0,0,0-.38.44l-.54.68-.72.94c0-.17,0-.43,0-.79s0-.62,0-.78,0-.4,0-.73,0-.62-.05-.9c-.21.28-.44.59-.68.94s-.44.61-.57.82a2.44,2.44,0,0,0,.31.29l0,.05-.19-.15-.2-.16-.2-.14Z"/><path class="h" d="M48.63,11.67l-.11-.15-.13-.14,0-.05.53.52c.29.27.51.45.64.56l.14-.11.05,0-.37.32c-.08.08-.15.13-.18.17l0-.06.18-.19s0-.14-.16-.31a4.07,4.07,0,0,0-.34-.39c-.23.22-.47.47-.74.75a3.11,3.11,0,0,0,.61.49l.13-.08,0,0-.24.19-.26.22,0-.06.08-.07.08-.09a1.51,1.51,0,0,0-.43-.53l0,0-.09.09c-.08.08-.19.21-.33.38s-.28.3-.37.41c.37.35.63.53.76.52l.1-.07.15-.11.08,0-.34.25-.31.26,0,0,.13-.16a6.69,6.69,0,0,0-.6-.62c-.29-.27-.47-.42-.52-.46l.06,0c.13.11.23.18.3.23l.85-.89Z"/><path class="h" d="M55.44,21.8a1.93,1.93,0,0,1,.1.68.43.43,0,0,1-.31.41.69.69,0,0,1-.65-.1,1.6,1.6,0,0,1-.49-.57h.08a1.1,1.1,0,0,0,.37.4.56.56,0,0,0,.49.05.48.48,0,0,0,.34-.4,1.29,1.29,0,0,0-.06-.61l-.39.12-.66.21-.84.31a1.76,1.76,0,0,0-.31.11c0,.06,0,.14,0,.22s0,.15,0,.18l-.05,0s0-.08,0-.14,0-.14-.07-.22a1.3,1.3,0,0,1-.06-.19l-.07-.18c0-.07,0-.14-.07-.2a.7.7,0,0,0-.05-.13h.06a2.27,2.27,0,0,0,.16.34l1.06-.35c.35-.11.72-.24,1.12-.39,0-.18-.06-.31-.08-.37l0,0,.16.49Z"/><path class="h" d="M54.7,24l-.39.08-.15.05-.16,0-.16,0-.16,0a1.09,1.09,0,0,0,0,.2c0,.11,0,.17,0,.17l0,0a2,2,0,0,1-.05-.24l-.06-.25-.14-.55h.06a1.7,1.7,0,0,0,.13.35l.85-.18,1.39-.34a1.41,1.41,0,0,0,0-.18l0-.2.05,0,.15.63c0,.2.09.37.11.51a1.84,1.84,0,0,1,0,.39.52.52,0,0,1-.06.23A.44.44,0,0,1,56,25a.4.4,0,0,1-.16.08.58.58,0,0,1-.4-.06,1.39,1.39,0,0,1-.38-.25c-.15.14-.37.35-.64.65a3.08,3.08,0,0,0-.48.6l0-.15a2.15,2.15,0,0,1,.17-.27c.09-.14.22-.32.38-.54l.41-.56a1.8,1.8,0,0,0,0-.19C54.75,24.2,54.73,24.11,54.7,24Zm.08,0a1.64,1.64,0,0,0,.22.56.63.63,0,0,0,.26.2.7.7,0,0,0,.32.05l.07,0a.39.39,0,0,0,.32-.34,2.16,2.16,0,0,0,0-.71C55.67,23.78,55.29,23.87,54.78,24Z"/><path class="h" d="M56.65,27c0,.05,0,.09,0,.14a1.43,1.43,0,0,1,0,.63,1.21,1.21,0,0,1-.33.55.93.93,0,0,1-.3.2,1.34,1.34,0,0,1-.37.1,1.39,1.39,0,0,1-.94-.24,1,1,0,0,1-.27-.24,1.31,1.31,0,0,1-.21-.36,1.69,1.69,0,0,1-.12-.44v-.07a1.43,1.43,0,0,1,.2-1,1.19,1.19,0,0,1,.86-.52,1.39,1.39,0,0,1,.71.11,1.38,1.38,0,0,1,.65.62A1.6,1.6,0,0,1,56.65,27Zm-.19-.28a.92.92,0,0,0-.44-.57,1,1,0,0,0-.67-.14l-.19,0a1.17,1.17,0,0,0-.51.29,1.31,1.31,0,0,0-.32.43,1.36,1.36,0,0,0-.12.46.92.92,0,0,0,0,.18,1.22,1.22,0,0,0,.2.55.93.93,0,0,0,.48.36,1.06,1.06,0,0,0,.51.05l.21,0a1,1,0,0,0,.35-.15,1.27,1.27,0,0,0,.31-.3,1.24,1.24,0,0,0,.24-.89A1.07,1.07,0,0,0,56.46,26.69Z"/><path class="h" d="M56.68,29.34l.06-.37h0c0,.14,0,.31,0,.5,0,.51,0,.81,0,.92a1.93,1.93,0,0,1-.32,1.09.73.73,0,0,1-.22.21.86.86,0,0,1-.24.11l-.22,0h0a1.32,1.32,0,0,1-.94-.39,1.46,1.46,0,0,1-.36-.56,2.08,2.08,0,0,1-.13-.64,6.6,6.6,0,0,1,0-.79c0-.13,0-.32,0-.56l.06,0a1.77,1.77,0,0,0,0,.37l.38,0,.89,0,.71,0Zm0,.32-1.1-.06c-.5,0-.87,0-1.09,0a3.55,3.55,0,0,0-.08.47,2.67,2.67,0,0,0,.08.58,1.28,1.28,0,0,0,.47.69,1,1,0,0,0,.59.2h.13a1,1,0,0,0,.84-.61,2.35,2.35,0,0,0,.18-.91A2.06,2.06,0,0,0,56.64,29.66Z"/><path class="h" d="M56.5,32.55a.39.39,0,0,0,0-.09.76.76,0,0,0,0-.11.15.15,0,0,1,0-.07h0a1.77,1.77,0,0,0,0,.2c0,.06,0,.14,0,.24s0,.23,0,.31l0,.22,0,0c0-.13,0-.25,0-.37l-.3-.06-.42-.08-.56-.08c-.68-.08-1.06.14-1.14.63v0q-.12.75.72.9l.5.09,1,.14c0-.08.07-.2.12-.37h0a1.18,1.18,0,0,1,0,.2l0,.26q0,.15,0,.24t0,.21l0,0v-.13a.85.85,0,0,1,0-.13l-.61-.12-.78-.12a1.32,1.32,0,0,1-.39-.15A.85.85,0,0,1,54.1,34a1,1,0,0,1-.16-.85.89.89,0,0,1,.51-.75.92.92,0,0,1,.39-.09,2.47,2.47,0,0,1,.5,0l.66.11Z"/><path class="h" d="M56.06,35.29h0c0,.06,0,.13,0,.19l-.09.29c0,.15-.06.26-.07.33s0,.15-.06.24l-.05,0s0-.11,0-.18,0-.13,0-.19l-1.07-.3-1.15-.28a3.65,3.65,0,0,0-.14.35h-.06l.06-.2c0-.08,0-.15.07-.24.08-.35.13-.55.14-.61l.05,0c0,.19,0,.32-.05.37l1.14.31,1.09.27Z"/><path class="h" d="M55.22,36.34a5.7,5.7,0,0,0,.71.3l.09,0,0,.06a.87.87,0,0,0-.23-.06c-.09.21-.22.56-.4,1s-.26.77-.38,1.18l.09.06.1.07a.15.15,0,0,1,0,.07,4.16,4.16,0,0,0-.41-.22,3.59,3.59,0,0,1-.39-.19l0,0,.11,0,.15.05.11,0a1,1,0,0,0,.16-.24c.06-.12.12-.24.17-.37l.12-.3-.36-.14-.64-.24-1.15-.38c-.08.15-.15.29-.2.41h-.06l.06-.14a1.36,1.36,0,0,1,.09-.23c0-.09,0-.16.07-.21l.07-.21.08-.24a1.26,1.26,0,0,0,0-.15l0,0c-.06.26-.1.41-.1.44.3.12.7.26,1.18.43s.73.26,1,.33a3,3,0,0,0,.22-1l-.32-.18Z"/><path class="h" d="M53.64,40.18l0-.06.08,0,.19.07a.45.45,0,0,0,.16,0,.53.53,0,0,0,.33-.31.5.5,0,0,0,0-.31.32.32,0,0,0-.14-.24l-.07,0a.4.4,0,0,0-.24,0,1.07,1.07,0,0,0-.29.14,3.4,3.4,0,0,1-.65.36.61.61,0,0,1-.51,0l-.05,0a.67.67,0,0,1-.36-.46.93.93,0,0,1,.08-.61,1.54,1.54,0,0,1,.28-.42l-.3-.22V38l.4.24.51.25.1.05-.05,0a1.41,1.41,0,0,0-.35-.13.6.6,0,0,0-.32.1.64.64,0,0,0-.23.26.56.56,0,0,0,0,.42.46.46,0,0,0,.25.3.56.56,0,0,0,.36,0,2.22,2.22,0,0,0,.44-.22l.31-.19a.73.73,0,0,1,.62,0,.56.56,0,0,1,.25.23.63.63,0,0,1,.08.34.84.84,0,0,1-.08.34.92.92,0,0,1-.29.4l.25.18,0,.07A8.8,8.8,0,0,0,53.64,40.18Z"/><path class="h" d="M53,42.53l.06,0-.12.16L52.8,43l-.18.29-.13.21,0-.05a1.38,1.38,0,0,0,.08-.17l.08-.17-.91-.62-1-.63a3.48,3.48,0,0,0-.24.28H50.4l.12-.17.14-.2q.29-.45.33-.54l0,0c-.09.17-.14.28-.16.33.2.15.53.37,1,.66l.94.6Z"/><path class="h" d="M51.9,43.26c.26.24.45.41.59.52l.07.06-.05,0a.94.94,0,0,0-.2-.12c-.15.17-.39.45-.71.86l-.74,1,.07.09.07.1a.09.09,0,0,1,0,.06,4,4,0,0,0-.32-.34,3.92,3.92,0,0,1-.3-.3l0,0,.09.08.12.1.09.07a.76.76,0,0,0,.23-.18,3.83,3.83,0,0,0,.28-.29,3.1,3.1,0,0,0,.21-.25l-.29-.24L50.59,44l-1-.73-.32.33,0,0a.39.39,0,0,0,.09-.11l.16-.19a1.5,1.5,0,0,0,.14-.18l.14-.17a1.73,1.73,0,0,1,.15-.2l.09-.13,0,0a3,3,0,0,0-.24.39l1,.78c.34.27.61.47.82.62a2.78,2.78,0,0,0,.52-.87l-.25-.28A.1.1,0,0,0,51.9,43.26Z"/><path class="h" d="M49.09,43.85l0,0L49,44l-.08.11a4.3,4.3,0,0,0,.24.55c.15.34.31.68.48,1s.27.57.32.67l.23-.18,0,0-.35.33-.31.35,0,0a1.83,1.83,0,0,0,.16-.22c-.31-.16-.73-.35-1.28-.59a7.22,7.22,0,0,0-1-.39l-.12.09-.13.1,0,0s.16-.14.39-.37l.34-.38,0,.06a1.31,1.31,0,0,0-.22.29l.48.23.55.24c.09-.09.28-.3.57-.64a1.78,1.78,0,0,0-.13-.26c-.08-.15-.17-.29-.25-.43a1.49,1.49,0,0,0-.16-.23h0a1.58,1.58,0,0,0-.22.16l0,0,.29-.29Zm.29,1.54-.27.28-.29.28.52.25.53.23s-.07-.18-.22-.49S49.41,45.44,49.38,45.39Z"/><path class="h" d="M46.27,46.94a3.93,3.93,0,0,0,.18.39l-.05.06a4.58,4.58,0,0,0-.27-.5c-.14-.22-.25-.38-.33-.49l.06,0,.26.32.19-.16.25-.2c.13-.12.27-.22.39-.32l.16-.15.15-.14,0,.05-.26.28c.3.37.56.67.77.92s.3.35.4.45l.33.37.32-.21,0,0-.2.16-.16.13-.22.2-.13.12a.94.94,0,0,1-.14.12V48.3l.13-.15L48.3,48a1.16,1.16,0,0,0-.18-.22l-.42-.52L47,46.47c-.12-.15-.19-.22-.19-.22C46.45,46.56,46.28,46.79,46.27,46.94Z"/><path class="h" d="M47.35,48.85l0,0-.16.12-.25.17-.27.21-.19.15v-.05l.13-.13.13-.14-.64-.9c-.42-.54-.66-.86-.73-.94l-.33.19,0,0,.18-.12.19-.14.5-.39,0,0-.27.26.7,1c.25.34.48.64.68.88Z"/><path class="h" d="M45.87,49.87,46,49.8l.17-.09,0,0-.64.38c-.33.22-.56.38-.7.49l.07.15,0,0-.22-.43-.11-.22h.06l.14.22s.14,0,.34-.07l.45-.24c-.14-.27-.32-.57-.53-.9a3.19,3.19,0,0,0-.63.46l.05.15,0,0-.13-.29c-.06-.13-.11-.23-.14-.31h0l.06.1.06.1a1.55,1.55,0,0,0,.63-.29l0,0L45,49l-.29-.41-.3-.46c-.44.27-.67.48-.7.61s0,0,0,.11a1.71,1.71,0,0,0,.07.18l0,.06c0-.08-.08-.21-.16-.39s-.14-.3-.18-.37h.06l.11.16a5.46,5.46,0,0,0,.76-.42l.57-.39,0,.06a3.34,3.34,0,0,0-.29.24l.64,1Q45.6,49.48,45.87,49.87Z"/><path class="h" d="M43.21,48.73l0,.06-.11.07L43,49c0,.14.34.84.91,2.1l.19-.06.19-.07,0,0-.63.34L43,51c-.2-.11-.46-.23-.76-.37l-.76-.36-.33-.17h0q.73,1.54.93,1.83a2.14,2.14,0,0,0,.38-.13l0,.05-.22.1-.25.11-.22.12-.17.08v0L41.9,52a5.28,5.28,0,0,0-.21-.54l-.35-.79c-.13-.27-.29-.63-.5-1.08l.71.35.71.34.66.31.82.38c-.15-.32-.33-.67-.52-1s-.34-.67-.47-.89a2.4,2.4,0,0,0-.39.14l0-.05.23-.1.23-.1.22-.11C43.06,48.81,43.14,48.78,43.21,48.73Z"/><path class="h" d="M39.69,52.22h.08l0,.09a.61.61,0,0,0,.08.18.32.32,0,0,0,.12.11.54.54,0,0,0,.45,0,.55.55,0,0,0,.26-.18.29.29,0,0,0,.07-.26.31.31,0,0,1,0-.08.4.4,0,0,0-.15-.19,1.08,1.08,0,0,0-.31-.11,3,3,0,0,1-.71-.22.61.61,0,0,1-.34-.38v0a.65.65,0,0,1,.07-.58,1,1,0,0,1,.5-.38,1.67,1.67,0,0,1,.49-.08,2.78,2.78,0,0,0,0-.37l.06-.05c0,.12.06.27.11.46s.1.34.17.54l0,.1h-.08a1.24,1.24,0,0,0-.15-.35.64.64,0,0,0-.29-.16.82.82,0,0,0-.35,0,.66.66,0,0,0-.33.26.44.44,0,0,0,0,.39.48.48,0,0,0,.22.28,2,2,0,0,0,.46.16l.36.1a.71.71,0,0,1,.46.41.5.5,0,0,1,0,.34.64.64,0,0,1-.18.29.92.92,0,0,1-.3.18.89.89,0,0,1-.49.06c0,.16,0,.26,0,.31l-.06,0A9.28,9.28,0,0,0,39.69,52.22Z"/><path class="h" d="M37.86,37.05a10.37,10.37,0,0,0,7.39-7.46c.51-2.4-3.93-4.81-6.61-.44-.08.14-.78-3.69-4-3.28-3.69.41-3.12,3.64-2.11,4.55A30.73,30.73,0,0,1,37.86,37.05Z"/><path class="h" d="M20.22,28.32a8.73,8.73,0,0,0,6.31-6.08c.43-2-3.36-3.93-5.65-.37-.07.12-.66-3-3.37-2.68-3.15.34-2.67,3-1.8,3.72A25.62,25.62,0,0,1,20.22,28.32Z"/></svg>